<?xml version="1.0" standalone="no"?>
<!DOCTYPE svg PUBLIC "-//W3C//DTD SVG 20010904//EN"
 "http://www.w3.org/TR/2001/REC-SVG-20010904/DTD/svg10.dtd">
<svg version="1.0" xmlns="http://www.w3.org/2000/svg"
 width="496.000000pt" height="213.000000pt" viewBox="0 0 496.000000 213.000000"
 preserveAspectRatio="xMidYMid meet">

<g transform="translate(0.000000,213.000000) scale(0.100000,-0.100000)"
fill="#000000" stroke="none">
<path d="M1847 793 c-13 -13 -7 -38 13 -51 28 -17 25 -32 -7 -33 -27 0 -27 -1
-6 -11 17 -8 26 -8 38 2 21 17 19 27 -10 52 -25 21 -24 44 1 34 8 -3 14 -1 14
4 0 11 -33 14 -43 3z"/>
<path d="M1942 788 c-30 -30 -2 -109 34 -93 18 8 17 9 -4 13 -20 3 -23 9 -20
40 2 28 7 37 21 36 9 -1 17 2 17 7 0 13 -34 11 -48 -3z"/>
<path d="M2030 785 c8 -9 11 -30 7 -55 -4 -29 -2 -40 8 -40 10 0 12 11 8 40
-4 25 -1 46 7 55 11 13 8 15 -15 15 -23 0 -26 -2 -15 -15z"/>
<path d="M2102 748 c3 -46 6 -53 26 -56 12 -2 22 1 22 7 0 6 -7 11 -15 11 -8
0 -15 7 -15 15 0 8 7 15 15 15 8 0 15 5 15 10 0 6 -7 10 -15 10 -20 0 -19 17
3 29 14 9 13 10 -11 11 -28 0 -28 -1 -25 -52z"/>
<path d="M2190 750 c0 -27 5 -50 10 -50 6 0 10 15 10 33 l1 32 20 -37 c11 -21
22 -38 24 -38 3 0 4 26 4 58 -1 49 -3 52 -8 22 l-7 -35 -17 33 c-25 46 -37 40
-37 -18z"/>
<path d="M2306 784 c-19 -50 6 -104 41 -88 16 7 15 8 -5 12 -20 3 -23 9 -20
40 2 29 7 36 21 34 9 -2 17 2 17 8 0 16 -47 12 -54 -6z"/>
<path d="M2400 745 c0 -48 3 -55 19 -55 11 0 23 5 26 10 3 6 -3 10 -14 10 -12
0 -21 7 -21 15 0 8 7 15 15 15 8 0 15 5 15 10 0 6 -7 10 -15 10 -23 0 -18 19
8 30 21 8 21 9 -5 9 -27 1 -28 -1 -28 -54z"/>
<path d="M2630 745 c0 -52 1 -55 25 -55 14 0 25 5 25 10 0 6 -9 10 -20 10 -11
0 -20 7 -20 15 0 8 7 15 15 15 8 0 15 5 15 10 0 6 -7 10 -15 10 -23 0 -18 19
8 30 21 8 21 9 -5 9 -27 1 -28 -1 -28 -54z"/>
<path d="M2721 748 c1 -47 2 -49 8 -18 l6 35 14 -33 c22 -52 31 -47 30 15 -1
49 -3 53 -8 23 l-7 -35 -17 33 c-10 17 -20 32 -22 32 -3 0 -4 -24 -4 -52z"/>
<path d="M2832 788 c-29 -29 -1 -103 37 -96 21 4 28 58 8 58 -11 0 -13 -7 -10
-21 4 -16 2 -20 -8 -17 -8 3 -14 18 -14 39 0 26 4 34 18 33 9 -1 17 2 17 7 0
13 -34 11 -48 -3z"/>
<path d="M2930 785 c8 -9 11 -30 7 -55 -4 -29 -2 -40 8 -40 10 0 12 11 8 40
-4 25 -1 46 7 55 11 13 8 15 -15 15 -23 0 -26 -2 -15 -15z"/>
<path d="M3000 750 c0 -27 5 -50 10 -50 6 0 10 15 10 33 l1 32 20 -37 c11 -21
22 -38 24 -38 3 0 4 26 4 58 -1 31 -4 45 -6 30 -5 -35 -16 -36 -31 -3 -18 40
-32 29 -32 -25z"/>
<path d="M3110 750 c0 -54 14 -69 48 -54 15 7 14 8 -5 11 -25 5 -32 33 -8 33
8 0 15 5 15 10 0 6 -7 10 -15 10 -24 0 -17 28 8 33 16 3 13 5 -10 6 l-33 1 0
-50z"/>
<path d="M3207 793 c-4 -3 -7 -26 -7 -50 0 -47 15 -62 48 -47 15 7 14 8 -5 11
-25 5 -32 33 -8 33 8 0 15 5 15 10 0 6 -7 10 -15 10 -24 0 -17 28 8 33 20 4
20 4 -4 6 -14 0 -29 -2 -32 -6z"/>
<path d="M3297 794 c-11 -11 -8 -92 3 -99 6 -4 10 6 10 22 l0 28 26 -30 c18
-21 23 -24 18 -10 -4 11 -7 36 -8 55 -1 27 -6 36 -21 38 -12 2 -24 0 -28 -4z
m38 -24 c0 -7 -6 -15 -12 -17 -8 -3 -13 4 -13 17 0 13 5 20 13 18 6 -3 12 -11
12 -18z"/>
<path d="M3398 788 c15 -15 16 -78 1 -78 -5 0 -7 -4 -4 -10 17 -27 30 -7 30
45 0 48 -3 55 -19 55 -16 0 -17 -3 -8 -12z"/>
<path d="M3470 750 c0 -27 5 -50 10 -50 6 0 10 12 10 28 l1 27 15 -27 c22 -42
34 -34 34 23 0 52 -19 62 -21 11 l0 -27 -16 33 c-23 45 -33 40 -33 -18z"/>
<path d="M3586 784 c-18 -48 5 -103 39 -90 17 6 21 56 4 56 -6 0 -8 -9 -4 -20
4 -14 2 -20 -9 -20 -8 0 -17 9 -21 20 -8 25 12 63 31 56 8 -3 14 -1 14 4 0 17
-47 11 -54 -6z"/>
<path d="M3822 748 c3 -50 5 -53 28 -50 29 3 40 18 40 53 0 31 -17 49 -48 49
-22 0 -23 -3 -20 -52z m46 -1 c-5 -48 -28 -46 -28 2 0 32 3 39 16 34 10 -4 14
-16 12 -36z"/>
<path d="M3930 745 c0 -52 1 -55 25 -55 14 0 25 5 25 10 0 6 -7 10 -15 10 -18
0 -20 26 -2 34 10 5 10 7 0 12 -19 8 -16 32 5 37 10 3 6 5 -10 6 -27 1 -28 0
-28 -54z"/>
<path d="M4027 793 c-13 -13 -7 -38 13 -51 26 -16 25 -32 -2 -32 -16 0 -19 -3
-11 -11 14 -14 41 -5 50 17 4 10 -4 24 -22 38 -19 15 -24 25 -17 30 7 4 17 4
22 1 6 -3 10 -1 10 4 0 12 -33 15 -43 4z"/>
<path d="M4115 745 c0 -42 3 -55 15 -55 12 0 15 13 15 55 0 42 -3 55 -15 55
-12 0 -15 -13 -15 -55z"/>
<path d="M4190 779 c-23 -42 15 -106 50 -84 15 10 12 55 -4 55 -9 0 -12 -7 -9
-21 4 -16 2 -20 -8 -17 -8 3 -14 18 -14 39 0 29 3 34 23 33 12 0 22 3 22 8 0
17 -50 7 -60 -13z"/>
<path d="M4290 750 c0 -27 5 -50 10 -50 6 0 10 12 10 28 l1 27 15 -27 c22 -42
34 -34 34 22 0 54 -20 71 -21 18 l0 -33 -16 33 c-23 45 -33 40 -33 -18z"/>
<path d="M2523 755 c-7 -20 2 -29 21 -22 9 4 13 13 10 22 -8 19 -23 19 -31 0z"/>
<path d="M3720 751 c0 -12 6 -21 16 -21 9 0 14 7 12 17 -5 25 -28 28 -28 4z"/>
</g>
</svg>
